<svg xmlns="http://www.w3.org/2000/svg" width="19.176" height="19.199" viewBox="0 0 19.176 19.199"><path d="M26.628,19.2h.13l6.259-1.362a.616.616,0,0,0,.324-.162l10.6-10.6a4.086,4.086,0,0,0,1.2-2.919,4.216,4.216,0,0,0-1.2-2.951A4.086,4.086,0,0,0,41.027,0a3.989,3.989,0,0,0-2.919,1.232l-10.572,10.6a.584.584,0,0,0-.195.292l-1.362,6.259a.713.713,0,0,0,.195.616A.649.649,0,0,0,26.628,19.2Zm14.4-17.9a2.821,2.821,0,0,1,2.822,2.821q0,.016,0,.033a2.724,2.724,0,0,1-.811,1.978L39.049,2.109A2.789,2.789,0,0,1,41.027,1.3ZM38.141,3.049l3.989,3.989-9.243,9.21L28.9,12.292Zm-9.762,10.54L31.59,16.8l-4.119.908Z" transform="translate(-25.97 0)"/></svg>